<?xml version="1.0" encoding="UTF-8"?>
<svg id="visual" xmlns="http://www.w3.org/2000/svg" xmlns:xlink="http://www.w3.org/1999/xlink" viewBox="0 0 900 656.88">
  <defs>
    <style>
      .cls-1 {
        fill: none;
      }

      .cls-2 {
        fill: #fdc20d;
      }

      .cls-3 {
        clip-path: url(#clippath);
      }
    </style>
    <clipPath id="clippath">
      <rect class="cls-1" x="0" y="0" width="900" height="656.88"/>
    </clipPath>
  </defs>
  <g class="cls-3">
    <path class="cls-2" d="M905.36,322.35v351.18s-920.12,0-920.12,0v-351.18s14.76,0,14.76,0V22.88s16.7,6.8,16.7,6.8c16.6,6.9,50,20.5,83.3,19.4,33.3-1.2,66.7-17.2,100-26.5,33.3-9.4,66.7-12,100-7.7s66.7,15.7,100,24c33.3,8.3,66.7,13.7,100,9.5,33.3-4.2,66.7-17.8,100-25.2,33.3-7.3,66.7-8.3,100-7.8,33.3.5,66.7,2.5,100,8.3,33.3,5.9,66.7,15.5,83.3,20.4l16.7,4.8v273.47s5.36,0,5.36,0Z"/>
  </g>
</svg>